<svg xmlns="http://www.w3.org/2000/svg" viewBox="0 0 161 161"><defs><style>.cls-1{fill:#c8b1e6;}.cls-2{fill:#00554c;}.cls-3{fill:none;stroke:#00554c;stroke-miterlimit:10;}</style></defs><g id="Layer_2" data-name="Layer 2"><g id="Layer_1-2" data-name="Layer 1"><circle class="cls-1" cx="80.5" cy="80.5" r="80.5"/><path class="cls-2" d="M42.63,89.11c0-5.9,0-11.8,0-17.7a5.8,5.8,0,0,1,2.27-4.91l2.43-2A1.8,1.8,0,0,0,48,63c0-3.92,0-7.83,0-11.75a3.34,3.34,0,0,0-.26-1A2.81,2.81,0,0,1,47.78,48a1.49,1.49,0,0,0,.22-.46,1,1,0,0,1,1-.85c1.11,0,2.22,0,3.34,0a1.12,1.12,0,0,1,1.07.84,3.43,3.43,0,0,1,.39,2.13c-.94,4.38-.15,8.81-.43,13.21a1.92,1.92,0,0,0,.87,1.76c.92.71,1.86,1.4,2.71,2.19A5.43,5.43,0,0,1,58.81,71q0,18.3,0,36.59c0,1.09-.21,1.36-1.26,1.71a19.66,19.66,0,0,1-5.86.76,24.91,24.91,0,0,1-7.64-.73c-1.22-.37-1.41-.6-1.41-1.89V89.11"/><path class="cls-2" d="M62.76,89.11c0-5.9,0-11.8,0-17.7A5.8,5.8,0,0,1,65,66.5q1.22-1,2.43-2A1.8,1.8,0,0,0,68.14,63c0-3.92,0-7.83,0-11.75a3.34,3.34,0,0,0-.26-1,2.81,2.81,0,0,1,0-2.29,1.76,1.76,0,0,0,.22-.46,1,1,0,0,1,1.05-.85c1.11,0,2.22,0,3.34,0,.54,0,.83.3,1.07.84A3.5,3.5,0,0,1,74,49.66c-.94,4.38-.15,8.81-.43,13.21a1.91,1.91,0,0,0,.86,1.76c.93.71,1.87,1.4,2.72,2.19A5.43,5.43,0,0,1,78.94,71q0,18.3,0,36.59c0,1.09-.21,1.36-1.25,1.71a19.7,19.7,0,0,1-5.86.76,25,25,0,0,1-7.65-.73c-1.22-.37-1.4-.6-1.4-1.89V89.11"/><path class="cls-2" d="M82.89,89.11c0-5.9,0-11.8,0-17.7a5.8,5.8,0,0,1,2.27-4.91c.8-.66,1.62-1.31,2.43-2A1.8,1.8,0,0,0,88.27,63c0-3.92,0-7.83,0-11.75a3.34,3.34,0,0,0-.26-1A2.81,2.81,0,0,1,88,48a1.76,1.76,0,0,0,.22-.46,1,1,0,0,1,1-.85c1.11,0,2.22,0,3.34,0,.54,0,.83.3,1.07.84a3.5,3.5,0,0,1,.39,2.13c-.94,4.38-.15,8.81-.43,13.21a1.91,1.91,0,0,0,.86,1.76c.93.71,1.86,1.4,2.72,2.19A5.43,5.43,0,0,1,99.07,71q0,18.3,0,36.59c0,1.09-.21,1.36-1.25,1.71a19.7,19.7,0,0,1-5.86.76,25,25,0,0,1-7.65-.73c-1.22-.37-1.4-.6-1.4-1.89V89.11"/><path class="cls-2" d="M103,89.11c0-5.9,0-11.8,0-17.7a5.8,5.8,0,0,1,2.27-4.91q1.2-1,2.43-2A1.8,1.8,0,0,0,108.4,63c0-3.92,0-7.83,0-11.75a3.34,3.34,0,0,0-.26-1,2.81,2.81,0,0,1,0-2.29,1.76,1.76,0,0,0,.22-.46,1,1,0,0,1,1-.85q1.66,0,3.33,0c.55,0,.84.3,1.08.84a3.5,3.5,0,0,1,.39,2.13c-.94,4.38-.16,8.81-.43,13.21a1.91,1.91,0,0,0,.86,1.76c.93.71,1.86,1.4,2.72,2.19A5.43,5.43,0,0,1,119.2,71q0,18.3,0,36.59c0,1.09-.21,1.36-1.25,1.71a19.74,19.74,0,0,1-5.86.76,25,25,0,0,1-7.65-.73c-1.22-.37-1.4-.6-1.4-1.89,0-6.12,0-12.25,0-18.37"/><circle class="cls-3" cx="80" cy="81" r="69.5"/></g></g></svg>
